<svg width="1894" height="482.9" version="1.1" viewBox="0 0 1894 482.9" xmlns="http://www.w3.org/2000/svg"><style type="text/css">.st0{fill:#FF0000;}
	.st1{display:none;}
	.st2{display:inline;}
	.st3{display:inline;fill:#FFFFFF;}</style><g transform="translate(-53.1,-758.6)"><path d="m1624 960.2c0-69-54.4-114.4-121.9-114.4s-121.9 45.4-121.9 114.4 54.4 114.4 121.9 114.4 121.9-45.3 121.9-114.4m-203.6 0c0-50.1 35.9-79.7 81.7-79.7 46.2 0 82.1 29.6 82.1 79.7s-35.9 79.7-82.1 79.7c-45.8 0-81.7-29.6-81.7-79.7zm-117.5-109.2v218.2h40.2v-218.2zm-258.4 0v36.3h92.7v181.9h40.2v-181.9h92.7v-36.3zm-157.8 0-95.5 218.2h43l15-34.3h148.7l15 34.3h42.2l-92.7-218.2zm24.4 35.9h24.9l45.8 112.4h-117.6zm-136.1 13.8c-22.5-35.5-59.2-54.8-108.1-54.8-68.2 0-121.1 43.4-121.1 114.4 0 70.6 51.7 114.4 121.1 114.4 49.7 0 85.6-19.7 108.5-54.8l-31.6-18.5c-18.1 24.1-41.4 37.5-77.7 37.5-47.7 0-80.5-32.3-80.5-78.5 0-47.7 31.6-78.5 80.5-78.5 35.9 0 60.4 13.4 77.7 37.1zm-261.5 59.5c0-69-54.4-114.4-121.9-114.4s-121.9 45.4-121.9 114.4 54.4 114.4 121.9 114.4c67.4 0 121.9-45.3 121.9-114.4zm-203.6 0c0-50.1 35.9-79.7 81.7-79.7 46.2 0 82.1 29.6 82.1 79.7s-35.9 79.7-82.1 79.7c-45.8 0-81.7-29.6-81.7-79.7zm-256.8-109.2v218.2h197.2v-36.3h-157v-181.9z"/><path class="st0" d="m1735 887.4 116.2 181.8h96v-218.2h-40.2v181.8h-36l-116.2-181.8h-93.1v218.2h40.1v-181.8zm212.2-88.5v-40.3h-285.6v40.3z"/><path d="m1376 1178v61.9h11.3v-51.7h37.8v51.7h11.3v-61.9zm-36.1 31c0-19.6-15.4-32.5-34.6-32.5-19.1 0-34.6 12.9-34.6 32.5s15.4 32.5 34.6 32.5 34.6-12.9 34.6-32.5zm-57.7 0c0-14.2 10.2-22.6 23.2-22.6 13.1 0 23.3 8.4 23.3 22.6s-10.2 22.6-23.3 22.6-23.2-8.4-23.2-22.6zm-135.4-31v61.9h87.9v-61.9h-11.2v51.6h-27.1v-51.6h-11.2v51.6h-27.2v-51.6zm-85.1 10.4h24.5c8.5 0 14.3 5.1 14.3 13.5 0 8.3-5.8 13.2-14.3 13.2h-24.5zm-11.4-10.4v61.9h11.4v-14.3h25c14.2 0 25.2-9.2 25.2-23.6s-11-24-25.2-24zm-93.5 0v61.9h57.1v-10.4h-45.7v-16.1h39.6v-10.2h-39.6v-14.9h44v-10.3zm-84.3 31.5h26.9c7.9 0 11.2 4.1 11.2 9.9s-3.1 10.3-11.1 10.3h-27zm-11.3-31.5v61.9h39.3c12.3 0 21.4-9.2 21.4-20.6 0-11.8-9.1-19.9-21.4-19.9h-28v-11.1h41.5v-10.3zm-85.1 10.4h24.5c8.5 0 14.3 5.1 14.3 13.5 0 8.3-5.8 13.2-14.3 13.2h-24.5zm-11.4-10.4v61.9h11.4v-14.3h25c14.2 0 25.2-9.2 25.2-23.6s-11-24-25.2-24zm-82.9 0-27.1 61.9h12.2l4.3-9.7h42.2l4.3 9.7h12l-26.3-61.9zm6.9 10.2h7.1l13 31.9h-33.4zm-113.8 21.3h26.9c7.9 0 11.2 4.1 11.2 9.9s-3.1 10.3-11.1 10.3h-27zm-11.3-31.5v61.9h39.3c12.3 0 21.4-9.2 21.4-20.6 0-11.8-9.1-19.9-21.4-19.9h-28v-11.1h41.5v-10.3z"/></g></svg>
